<?xml version="1.0" encoding="UTF-8" standalone="no"?>
<!-- Created with Inkscape (http://www.inkscape.org/) -->

<svg
   xmlns:dc="http://purl.org/dc/elements/1.1/"
   xmlns:cc="http://creativecommons.org/ns#"
   xmlns:rdf="http://www.w3.org/1999/02/22-rdf-syntax-ns#"
   xmlns:svg="http://www.w3.org/2000/svg"
   xmlns="http://www.w3.org/2000/svg"
   xmlns:sodipodi="http://sodipodi.sourceforge.net/DTD/sodipodi-0.dtd"
   xmlns:inkscape="http://www.inkscape.org/namespaces/inkscape"
   width="297mm"
   height="210mm"
   viewBox="0 0 297 210"
   version="1.1"
   id="svg2269">
  <defs
     id="defs2263">
    <clipPath
       clipPathUnits="userSpaceOnUse"
       id="clipPath904">
      <path
         d="M 829.072,299.43 H 1050.86 V 521.217 H 829.072 Z"
         id="path902"
         inkscape:connector-curvature="0" />
    </clipPath>
  </defs>
  <sodipodi:namedview
     id="base"
     pagecolor="#ffffff"
     bordercolor="#666666"
     borderopacity="1.0"
     inkscape:pageopacity="0.0"
     inkscape:pageshadow="2"
     inkscape:zoom="0.35"
     inkscape:cx="400"
     inkscape:cy="560"
     inkscape:document-units="mm"
     inkscape:current-layer="layer1"
     showgrid="false" />
  <metadata
     id="metadata2266">
    <rdf:RDF>
      <cc:Work
         rdf:about="">
        <dc:format>image/svg+xml</dc:format>
        <dc:type
           rdf:resource="http://purl.org/dc/dcmitype/StillImage" />
        <dc:title></dc:title>
      </cc:Work>
    </rdf:RDF>
  </metadata>
  <g
     inkscape:label="Capa 1"
     inkscape:groupmode="layer"
     id="layer1"
     transform="translate(0,-87)">
    <g
       id="g2857"
       transform="rotate(90.348294,106.34446,194.16802)">
      <rect
         y="0.66666663"
         x="0"
         height="298.6012"
         width="210.91072"
         id="rect2846"
         style="opacity:0.406;fill:#00ff00;fill-opacity:1;stroke:#000000;stroke-width:0.95499998;stroke-miterlimit:4;stroke-dasharray:none;stroke-opacity:1" />
      <g
         inkscape:export-ydpi="96"
         inkscape:export-xdpi="96"
         id="g898"
         transform="matrix(0.97399496,0,0,-1.3364034,-809.80187,697.16599)">
        <g
           clip-path="url(#clipPath904)"
           id="g900">
          <g
             transform="translate(1035.7878,423.8527)"
             id="g906">
            <path
               inkscape:connector-curvature="0"
               id="path908"
               style="fill:#1c110b;fill-opacity:1;fill-rule:nonzero;stroke:none"
               d="m 0,0 c -7.966,-0.699 -15.9,-1.697 -23.786,-2.982 11.611,2.938 23.223,5.877 34.834,8.815 11.481,2.512 23.04,4.67 34.666,6.444 C 30.726,7.273 15.459,3.178 0,0 m -3.697,-27.734 c 0.286,-0.12 0.567,-0.25 0.852,-0.371 0.138,-0.445 0.425,-0.853 0.863,-1.091 -1.83,0.452 -3.66,0.905 -5.49,1.357 1.258,0.021 2.517,0.057 3.775,0.105 m 5.51,-2.401 c -0.959,0.238 -1.918,0.475 -2.878,0.712 l 1.536,-0.127 c 0.446,-0.198 0.897,-0.384 1.342,-0.585 m -4.67,23.41 c -1.25,0.148 -2.502,0.284 -3.754,0.406 3.146,0.515 6.292,1.031 9.439,1.547 -1.887,-0.676 -3.783,-1.326 -5.685,-1.953 m 46.059,-43.829 c -11.447,2.697 -22.798,5.771 -34.041,9.191 -8.54,2.904 -17.08,5.808 -25.62,8.712 -0.845,0.49 -1.691,0.98 -2.536,1.47 5.834,-1.323 11.706,-2.487 17.609,-3.485 15.155,-4.402 30.047,-9.703 44.588,-15.888 m -43.953,8.801 c 0.731,-0.235 1.458,-0.479 2.19,-0.712 -0.592,0.153 -1.182,0.316 -1.773,0.47 -0.139,0.081 -0.278,0.161 -0.417,0.242 m 19.143,-14.969 c -4.247,0.674 -8.471,1.472 -12.659,2.419 -8.13,5.203 -16.633,9.804 -25.424,13.77 8.974,-3.071 17.899,-6.286 26.774,-9.635 3.77,-2.185 7.54,-4.369 11.309,-6.554 m 3.376,-13.305 c -15.189,6.614 -30.192,13.642 -44.994,21.071 8.988,-3.497 18.227,-6.343 27.634,-8.502 6.001,-3.866 11.803,-8.054 17.36,-12.569 m 6.207,-16.801 c -4.218,1.748 -8.4,3.576 -12.553,5.467 -13.639,7.595 -27.278,15.19 -40.917,22.785 -2.975,1.976 -5.978,3.91 -9.016,5.787 10.695,-5.393 21.389,-10.786 32.084,-16.179 10.316,-5.63 20.46,-11.578 30.402,-17.86 m -49.135,17.492 c -0.847,0.932 -1.703,1.855 -2.569,2.768 2.714,-1.673 5.428,-3.347 8.142,-5.02 -1.868,0.727 -3.725,1.479 -5.573,2.252 m -14.439,-10.403 c 0.998,-0.766 2.005,-1.522 3.02,-2.268 0.503,-0.922 0.985,-1.856 1.477,-2.785 l -1.394,1.025 c -1.034,1.343 -2.068,2.686 -3.103,4.028 m 25.509,-49.326 c -7.278,9.238 -14.246,18.711 -20.915,28.388 -6.472,10.078 -12.944,20.156 -19.416,30.234 2.434,-3.153 4.925,-6.263 7.472,-9.326 0.059,-0.318 0.24,-0.63 0.596,-0.892 0.141,-0.104 0.283,-0.208 0.424,-0.312 2.24,-2.666 4.515,-5.303 6.842,-7.897 9.118,-12.881 17.469,-26.301 24.997,-40.195 m -17.354,4.433 c -4.57,4.563 -8.898,9.352 -12.983,14.333 -2.72,8.062 -5.959,15.941 -9.685,23.582 7.857,-12.453 15.419,-25.093 22.668,-37.915 m -30.779,33.436 c 4.483,-7.224 9.426,-14.161 14.801,-20.758 2.04,-6.109 3.788,-12.323 5.216,-18.621 -6.992,12.964 -13.662,26.096 -20.017,39.379 m 14.527,-56.428 c -7.751,13.771 -14.661,27.987 -20.707,42.565 -2.194,7.69 -4.676,15.291 -7.43,22.792 5.083,-10.846 10.166,-21.691 15.249,-32.536 4.639,-10.799 8.945,-21.741 12.888,-32.821 m -27.852,44.097 c -0.091,1.256 -0.194,2.511 -0.311,3.764 1.101,-2.992 2.203,-5.984 3.305,-8.976 -1.02,1.725 -2.017,3.463 -2.994,5.212 m -10.509,50.964 c -0.155,0.329 -0.377,0.553 -0.633,0.69 l -0.749,6.014 c 10.137,-19.88 19.18,-40.294 27.098,-61.148 -3.995,8.988 -8.219,17.874 -12.685,26.639 -4.344,9.268 -8.688,18.536 -13.031,27.805 m 2.963,-28.169 c -0.039,0.31 -0.077,0.62 -0.116,0.93 0.667,-1.812 1.334,-3.623 2.001,-5.435 0.395,-2.194 0.748,-4.397 1.059,-6.607 -0.981,3.704 -1.963,7.408 -2.944,11.112 M -83.8,25.177 c -0.981,-1.766 -1.962,-3.532 -2.944,-5.298 0.229,1.424 0.477,2.843 0.717,4.265 1.185,2.755 2.31,5.535 3.368,8.338 -0.414,-2.125 -0.829,-4.249 -1.244,-6.374 -0.07,-0.357 -0.023,-0.67 0.103,-0.931 m -1.347,-60.501 c -0.379,0.713 -0.761,1.425 -1.14,2.138 0.641,-0.547 1.282,-1.094 1.928,-1.634 -0.292,-0.097 -0.568,-0.266 -0.788,-0.504 m -3.329,-108.457 c -2.097,22.351 -3.37,44.77 -3.812,67.21 0.25,-0.086 0.524,-0.11 0.795,-0.08 1.78,-16.533 3.559,-33.066 5.339,-49.599 -0.513,-5.868 -1.276,-11.719 -2.322,-17.531 m -4.065,117.055 c -0.049,-0.507 0.115,-1.047 0.577,-1.468 0.834,-0.76 1.679,-1.506 2.523,-2.253 -0.654,-0.324 -1.154,-1.053 -1.032,-1.91 0.069,-0.482 0.137,-0.965 0.206,-1.448 -0.882,2.465 -1.763,4.929 -2.644,7.393 0.123,-0.104 0.246,-0.21 0.37,-0.314 m -0.189,14.965 c 0.872,-0.426 1.743,-0.851 2.615,-1.277 -0.212,-0.497 -0.178,-1.063 0.047,-1.522 -0.298,-0.277 -0.483,-0.643 -0.546,-1.025 -0.388,-0.582 -0.47,-1.391 0.083,-2.094 0.087,-0.112 0.175,-0.224 0.263,-0.336 -0.068,-0.026 -0.136,-0.053 -0.205,-0.079 -0.873,2.015 -1.747,4.029 -2.621,6.043 0.122,0.097 0.243,0.193 0.364,0.29 m -1.316,38.723 c 0.207,0.203 0.357,0.482 0.412,0.841 0.328,2.14 0.656,4.28 0.984,6.42 0.048,-2.996 0.167,-5.992 0.351,-8.986 -0.256,-1.419 -0.503,-2.839 -0.768,-4.256 z m 8.865,50.411 c -1.037,-11.127 -2.375,-22.223 -4.015,-33.278 0.387,11.19 1.728,22.329 4.015,33.278 m -6.333,5.774 c 1.685,15.692 4.303,31.28 7.851,46.678 -0.655,-11.741 -1.698,-23.455 -3.101,-35.123 -1.815,-11.839 -3.63,-23.678 -5.445,-35.517 0.525,7.973 0.76,15.966 0.695,23.962 m 15.277,-89.036 c -0.343,-0.165 -0.685,-0.329 -1.028,-0.494 -0.299,0.024 -0.597,0.051 -0.897,0.074 0.005,0.005 0.01,0.011 0.015,0.017 0.16,-0.005 0.324,0.005 0.492,0.047 0.472,0.119 0.945,0.238 1.418,0.356 m -6.333,48.83 c 2.195,10.958 4.688,21.853 7.476,32.675 -1.551,-11.077 -4.056,-22.013 -7.476,-32.675 m 8.664,70.518 c 0.12,0.285 0.236,0.573 0.358,0.858 0.018,-0.31 0.029,-0.619 0.046,-0.929 -3.017,-21.69 -6.807,-43.265 -11.376,-64.677 -0.034,-0.004 -0.068,-0.005 -0.102,-0.01 -0.03,0.016 -0.062,0.029 -0.093,0.044 2.941,21.696 6.671,43.281 11.167,64.714 m 6.161,-22.07 c 2.626,11.455 5.605,22.831 8.96,34.102 -1.37,-11.507 -3.251,-22.94 -5.621,-34.269 -4.546,-8.383 -7.268,-17.731 -7.897,-27.381 -0.804,-2.564 -1.588,-5.135 -2.329,-7.718 2.296,11.755 4.592,23.51 6.887,35.266 M -52.083,8.067 c -2.118,-1.278 -4.236,-2.556 -6.354,-3.833 -0.311,-0.188 -0.512,-0.432 -0.621,-0.701 -1.968,-0.458 -3.935,-0.916 -5.903,-1.373 1.354,0.879 2.718,1.741 4.078,2.61 2.96,1.03 5.895,2.128 8.8,3.297 m 0.626,79.37 c -1.272,-2.88 -2.544,-5.76 -3.816,-8.641 -0.06,0.506 -0.363,0.946 -0.768,1.228 1.473,2.504 3,4.976 4.584,7.413 m 10.06,14.054 c -1.089,-1.959 -2.177,-3.918 -3.266,-5.877 -0.185,-0.154 -0.347,-0.351 -0.47,-0.6 l -1.062,-2.158 c -0.348,-0.626 -0.696,-1.252 -1.044,-1.879 -0.349,0.421 -0.89,0.663 -1.421,0.644 2.312,3.364 4.739,6.652 7.263,9.87 m 2.944,-24.982 c -0.857,-1.619 -1.724,-3.232 -2.603,-4.839 -0.197,-0.021 -0.39,-0.071 -0.571,-0.163 z m 3.465,10.359 c 0.401,0.695 0.802,1.389 1.203,2.084 0.139,0.24 0.213,0.485 0.238,0.725 1.924,3.751 3.849,7.502 5.774,11.253 0.207,0.403 0.238,0.805 0.16,1.173 1.663,2.741 3.346,5.471 5.059,8.183 -3.687,-8.906 -7.701,-17.668 -12.023,-26.272 -0.26,0.516 -0.802,0.882 -1.392,0.943 z m 7.135,-7.534 c -0.644,-0.841 -1.288,-1.683 -1.932,-2.525 -0.362,-0.266 -0.717,-0.543 -1.078,-0.812 0.191,0.569 0.37,1.142 0.557,1.711 0.821,0.538 1.644,1.073 2.453,1.626 m 4.039,-26.05 c 0.244,0.131 0.484,0.27 0.729,0.401 -0.574,-0.456 -1.147,-0.912 -1.721,-1.369 0.331,0.323 0.661,0.645 0.992,0.968 m 34.897,1.467 c 0.657,0.237 1.314,0.469 1.973,0.699 -0.489,-0.498 -0.98,-0.994 -1.474,-1.486 C -5.98,42.073 -23.943,30.789 -42.287,20.152 c -0.041,0.047 -0.091,0.083 -0.136,0.125 -0.021,0.071 -0.046,0.142 -0.076,0.211 17.453,12.042 35.329,23.464 53.582,34.263 m -22.447,30.465 c -2.836,-3.456 -5.672,-6.912 -8.509,-10.368 -0.301,-0.304 -0.603,-0.608 -0.904,-0.912 -0.239,0.537 -0.747,0.936 -1.311,1.028 3.512,3.481 7.083,6.903 10.724,10.252 m 10.502,9.334 c -1.932,-2.332 -3.885,-4.645 -5.856,-6.943 -0.262,0.42 -0.668,0.73 -1.113,0.819 2.301,2.065 4.619,4.112 6.969,6.124 m -10.516,-29.136 -2.259,-2.731 c -0.184,-0.222 -0.294,-0.455 -0.352,-0.688 -0.585,-0.278 -1.17,-0.556 -1.753,-0.838 1.455,1.419 2.909,2.838 4.364,4.257 m 7.765,9.387 c -1.406,-1.699 -2.812,-3.399 -4.218,-5.099 -0.015,0.367 -0.132,0.724 -0.326,1.019 1.509,1.367 3.027,2.723 4.544,4.08 m 6.582,-9.915 c 5.056,3.155 10.18,6.203 15.379,9.126 C 9.227,66.59 -0.135,59.474 -9.706,52.654 l -1.972,-1.311 c 5.024,4.359 9.909,8.875 14.647,13.543 M -43.685,15.372 c 8.352,4.953 16.826,9.696 25.403,14.249 -8.098,-5.369 -16.59,-10.137 -25.403,-14.249 m 17.017,-25.194 c -0.311,0.021 -0.623,0.042 -0.935,0.063 1.905,0.312 3.81,0.624 5.716,0.936 2.229,-0.028 4.459,-0.098 6.688,-0.211 -3.823,-0.262 -7.646,-0.525 -11.469,-0.788 m -1.454,-12.912 c 0.313,-0.004 0.625,-0.008 0.938,-0.012 3.789,-0.567 7.579,-1.134 11.369,-1.702 -2.231,0.066 -4.46,0.174 -6.684,0.324 -1.874,0.464 -3.749,0.927 -5.623,1.39 m -19.152,44.122 c 7.441,6.165 15.333,11.766 23.594,16.762 -7.732,-5.771 -15.599,-11.361 -23.594,-16.762 m -15.05,-43.66 c 2.02,-0.028 4.04,-0.055 6.06,-0.082 0.164,-0.24 0.412,-0.436 0.756,-0.553 9.69,-3.295 19.381,-6.591 29.071,-9.886 3.177,-1.199 6.368,-2.356 9.567,-3.495 1.304,-0.756 2.609,-1.512 3.914,-2.268 -16.672,4.732 -33.146,10.157 -49.368,16.284 m 23.04,-15.737 c -0.883,0.415 -1.766,0.83 -2.649,1.246 -1.677,0.878 -3.342,1.781 -4.994,2.709 1.819,-0.529 3.63,-1.085 5.432,-1.666 0.914,-0.34 1.829,-0.679 2.744,-1.019 0.232,-0.086 0.454,-0.119 0.663,-0.113 11.182,-3.838 21.997,-8.686 32.301,-14.471 -11.356,3.307 -22.402,7.635 -32.981,12.935 -0.14,0.145 -0.302,0.278 -0.516,0.379 m -21.61,2.273 c -0.066,0.034 -0.131,0.058 -0.196,0.082 -1.024,1.153 -2.059,2.297 -3.105,3.431 19.572,-9.148 38.649,-19.312 57.146,-30.462 -8.692,4.604 -17.501,8.986 -26.427,13.123 -9.139,4.609 -18.278,9.217 -27.418,13.826 m -2.261,109.93 1.496,5.236 c -0.099,-1.016 -0.205,-2.03 -0.317,-3.044 -0.399,-0.728 -0.79,-1.459 -1.179,-2.192 m 2.482,-60.293 c -1.236,-1.194 -2.453,-2.408 -3.658,-3.634 -0.357,-0.225 -0.71,-0.455 -1.068,-0.679 0.629,0.855 1.258,1.709 1.876,2.571 0.955,0.573 1.905,1.154 2.85,1.742 M -70.13,49.78 c 0.351,1.229 0.702,2.458 1.053,3.687 0.654,1.632 1.33,3.254 2.028,4.867 0.508,0.996 1.026,1.987 1.554,2.974 -1.393,-3.57 -2.786,-7.14 -4.18,-10.709 -0.152,-0.273 -0.303,-0.546 -0.455,-0.819 m -3.951,-71.893 c 0.285,0.005 0.571,0.014 0.856,0.019 -0.111,-0.207 -0.186,-0.43 -0.209,-0.654 -0.216,0.211 -0.43,0.425 -0.647,0.635 m 0.129,-20.936 c 1.236,-0.923 2.481,-1.834 3.735,-2.732 0.03,-0.063 0.061,-0.125 0.101,-0.188 5.531,-8.612 11.062,-17.225 16.593,-25.837 5.04,-8.449 10.311,-16.757 15.79,-24.925 -13.006,17.242 -25.092,35.163 -36.219,53.682 m 7.49,-24.645 c -1.336,2.659 -2.673,5.317 -4.009,7.975 -0.149,0.367 -0.304,0.732 -0.451,1.101 0.234,-0.321 0.46,-0.646 0.692,-0.968 1.538,-2.547 3.076,-5.094 4.614,-7.64 0.287,-0.475 0.695,-0.716 1.124,-0.789 6.804,-10.576 12.586,-21.788 17.241,-33.467 -7.404,10.159 -13.814,21.023 -19.141,32.414 0.168,0.401 0.179,0.878 -0.07,1.374 M 32.101,52.305 C 19.214,43.16 5.797,34.804 -8.07,27.27 c -7.419,-2.985 -14.72,-6.246 -21.893,-9.768 10.256,6.187 20.512,12.374 30.768,18.561 10.255,5.74 20.688,11.165 31.296,16.242 M 27.912,20.246 C 21.44,18.231 14.945,16.289 8.43,14.419 6.42,14.255 4.412,14.071 2.41,13.847 c 8.501,2.133 17.001,4.266 25.502,6.399 M -96.651,-14.886 c 0.284,0.226 0.568,0.453 0.852,0.679 0.285,-0.66 0.571,-1.319 0.857,-1.978 -0.569,0.433 -1.139,0.866 -1.709,1.299 m 0.681,-100.117 c -0.169,9.835 -0.589,19.665 -1.279,29.478 -0.38,10.229 -0.76,20.457 -1.141,30.686 -0.013,0.363 -0.13,0.656 -0.313,0.882 0.491,1.723 0.981,3.446 1.471,5.17 0.102,-0.388 0.2,-0.776 0.304,-1.163 1.464,-21.656 1.786,-43.371 0.958,-65.053 m -4.218,-42.329 c -1.758,15.703 -2.57,31.489 -2.445,47.27 0.983,7.937 1.666,15.904 2.059,23.884 0.445,-11.969 0.89,-23.938 1.335,-35.907 0.055,-11.752 -0.252,-23.508 -0.949,-35.247 m -0.619,146.518 c 0.846,0.659 1.003,2.046 0.069,2.668 0.024,0.087 0.048,0.173 0.073,0.259 l 0.91,-0.444 c 0.118,-0.081 0.246,-0.144 0.383,-0.187 0.467,-0.229 0.935,-0.457 1.402,-0.685 l 0.794,-1.831 -2.218,-1.768 c -0.55,0.418 -1.1,0.837 -1.65,1.255 0.126,0.223 0.214,0.471 0.237,0.733 m 2.603,71.331 c -0.129,-1.927 -0.258,-3.853 -0.387,-5.779 -0.05,0.308 -0.1,0.617 -0.151,0.925 -0.104,3.83 -0.208,7.661 -0.312,11.491 0.325,-2.208 0.609,-4.421 0.85,-6.637 m 1.49,-79.552 c -0.05,0.003 -0.1,0.004 -0.15,0.003 -0.358,0.153 -0.767,0.195 -1.162,0.091 -0.348,0.594 -1.025,0.908 -1.66,0.876 -0.023,0.211 -0.083,0.421 -0.182,0.616 0.174,0.138 0.348,0.277 0.521,0.415 z m 0.179,104.541 c -0.212,-3.181 -0.425,-6.363 -0.638,-9.544 -0.241,1.235 -0.496,2.468 -0.763,3.699 0.443,1.953 0.909,3.902 1.401,5.845 m -9.339,-87.118 c -0.412,0.202 -0.805,0.219 -1.154,0.123 -0.39,0.114 -0.78,0.231 -1.17,0.346 -0.122,0.148 -0.245,0.295 -0.368,0.442 0.219,0.269 0.37,0.603 0.416,0.961 0.361,0.006 0.71,0.119 1.001,0.306 0.51,-0.531 1.02,-1.062 1.53,-1.593 0.029,-0.25 0.054,-0.5 0.083,-0.75 -0.113,0.055 -0.225,0.11 -0.338,0.165 m -0.809,-85.201 c -0.493,-2.174 -1.028,-4.34 -1.605,-6.496 0.543,3.793 1.086,7.586 1.628,11.379 0.086,0.301 0.171,0.601 0.257,0.902 -0.093,-1.928 -0.186,-3.857 -0.28,-5.785 m -1.208,-25.016 c -0.265,1.987 -0.505,3.976 -0.721,5.967 0.407,1.192 0.802,2.388 1.183,3.587 -0.154,-3.185 -0.308,-6.369 -0.462,-9.554 m 0.298,184.146 c -0.009,-2.006 -0.012,-4.012 -0.008,-6.018 -0.807,5.466 -1.614,10.933 -2.421,16.399 0.904,-3.44 1.716,-6.901 2.429,-10.381 m -10.154,-42.854 c -1.518,3.671 -3.151,7.291 -4.884,10.861 3.103,-5.295 6.207,-10.59 9.31,-15.886 -1.451,1.696 -2.928,3.37 -4.426,5.025 m -2.343,-42.786 c 0.021,0 0.041,0.001 0.062,0.001 0.926,-0.379 1.855,-0.748 2.786,-1.116 -0.885,-0.441 -1.772,-0.875 -2.652,-1.326 0.03,0.372 -0.054,0.738 -0.24,1.034 0.211,0.415 0.221,0.937 0.044,1.407 m -15.227,-93.678 c 3.659,9.13 7.085,18.353 10.255,27.665 2.074,5.49 4.148,10.98 6.221,16.47 l 2.144,4.102 c 0.869,1.044 1.727,2.098 2.579,3.156 -6.293,-17.441 -13.361,-34.592 -21.199,-51.393 m 3.917,-15.629 c -2.533,-4.704 -5.253,-9.313 -8.171,-13.803 6.736,21.414 14.258,42.572 22.554,63.426 0.155,-0.137 0.342,-0.237 0.539,-0.315 -4.974,-16.436 -9.948,-32.872 -14.922,-49.308 m -9.676,10.368 c -4.508,-10.853 -9.351,-21.569 -14.546,-32.12 3.232,10.96 6.944,21.765 11.107,32.391 4.257,8.145 8.514,16.29 12.77,24.435 -3.11,-8.235 -6.221,-16.47 -9.331,-24.706 m -42.253,18.514 c -2.004,-1.226 -4.024,-2.429 -6.074,-3.583 1.372,1.91 2.79,3.786 4.229,5.644 13.589,12.557 27.549,24.705 41.875,36.411 0.092,-0.17 0.208,-0.326 0.345,-0.46 0.118,-0.15 0.261,-0.283 0.419,-0.394 -13.21,-12.952 -26.819,-25.492 -40.794,-37.618 m 22.126,5.193 c -10.713,-7.113 -19.956,-16.165 -27.277,-26.663 -1.62,-1.365 -3.25,-2.719 -4.892,-4.058 7.72,8.871 15.73,17.481 23.996,25.835 6.392,6.053 12.784,12.106 19.177,18.159 -3.668,-4.424 -7.336,-8.849 -11.004,-13.273 m -50.448,-10.309 c 11.269,11.077 23.187,21.46 35.68,31.104 6.85,4.126 13.54,8.506 20.061,13.123 -9.142,-7.738 -18.284,-15.477 -27.425,-23.216 -9.212,-7.298 -18.65,-14.312 -28.316,-21.011 m 26.743,57.902 c -2,-0.106 -4.002,-0.189 -6.005,-0.245 l 9.356,1.988 c -1.123,-0.569 -2.24,-1.15 -3.351,-1.743 m 8.843,-7.748 c 0.286,0.15 0.568,0.31 0.855,0.459 0.178,0.049 0.356,0.1 0.534,0.15 -0.157,-0.097 -0.315,-0.193 -0.472,-0.291 -0.304,-0.11 -0.613,-0.209 -0.917,-0.318 m 3.259,-10.47 c -2.6,-1.845 -5.201,-3.69 -7.801,-5.535 1.399,1.436 2.816,2.852 4.25,4.251 1.188,0.416 2.372,0.844 3.551,1.284 m -64.258,18.279 c 11.476,2.57 23.03,4.759 34.639,6.589 11.886,1.48 23.771,2.961 35.657,4.441 -7.814,-1.668 -15.569,-3.62 -23.245,-5.862 -15.557,-2.655 -31.268,-4.386 -47.051,-5.168 m 11.498,13.733 c 7.792,2.748 15.742,4.989 23.793,6.725 11.729,-1.309 23.561,-1.569 35.332,-0.786 -19.636,-2.62 -39.355,-4.602 -59.125,-5.939 m -0.712,14.486 c 19.806,0.608 39.624,0.57 59.422,-0.112 -11.791,-0.374 -23.54,-1.794 -35.084,-4.247 -8.182,0.937 -16.314,2.388 -24.338,4.359 m -12.789,12.539 c 15.783,0.769 31.588,0.588 47.331,-0.528 7.859,-1.479 15.767,-2.661 23.707,-3.554 -11.973,0.307 -23.947,0.614 -35.92,0.922 -11.733,0.683 -23.446,1.728 -35.118,3.16 m 51.898,5.176 c 1.164,-0.481 2.332,-0.95 3.505,-1.406 -3.169,0.354 -6.337,0.707 -9.506,1.061 2,0.14 4,0.254 6.001,0.345 m -31.272,56.691 c 10.197,-5.859 20.193,-12.052 29.988,-18.547 9.763,-6.939 19.525,-13.878 29.287,-20.818 -6.887,4.051 -13.923,7.851 -21.097,11.384 -13.262,8.554 -26.014,17.894 -38.178,27.981 m 26.847,1.93 c -1.613,1.969 -3.193,3.966 -4.725,6.002 4.388,-3.365 8.732,-6.784 13.057,-10.229 -2.743,1.474 -5.52,2.884 -8.332,4.227 m -2.145,-5.07 c -2.324,1.821 -4.64,3.652 -6.947,5.495 2.357,-1.004 4.685,-2.068 6.998,-3.163 0.429,-0.522 0.847,-1.052 1.281,-1.568 -0.564,0.055 -1.045,-0.278 -1.332,-0.764 m -4.552,28.874 c 9.204,-6.799 18.097,-13.997 26.667,-21.557 1.316,-2.659 2.685,-5.29 4.097,-7.896 -1.855,1.596 -3.711,3.193 -5.566,4.789 -8.654,7.952 -17.064,16.171 -25.198,24.664 m 13.542,12.108 c 7.533,-9.031 14.763,-18.306 21.699,-27.793 0.739,-1.082 1.477,-2.164 2.215,-3.246 -3.406,3.027 -6.813,6.053 -10.22,9.08 -4.797,7.166 -9.371,14.485 -13.694,21.959 m 22.026,-3.666 c -0.289,0.281 -0.579,0.559 -0.87,0.838 -0.11,0.335 -0.23,0.665 -0.339,1 0.405,-0.611 0.804,-1.226 1.209,-1.838 m 3.959,-8.858 c -0.013,-0.208 0.011,-0.422 0.088,-0.637 1.586,-4.402 3.34,-8.735 5.231,-13.002 -0.871,1.356 -1.734,2.718 -2.599,4.079 -1.776,3.91 -3.427,7.88 -4.944,11.904 0.749,-0.774 1.488,-1.557 2.224,-2.344 m -1.265,28.176 c 8.981,-13.001 17.166,-26.523 24.524,-40.485 2.891,-7.456 6.059,-14.798 9.489,-22.015 -6.056,10.334 -12.112,20.667 -18.168,31.001 -5.61,10.327 -10.903,20.828 -15.845,31.499 m 31.779,-41.356 c 0.206,-1.242 0.424,-2.482 0.656,-3.719 -1.372,2.878 -2.743,5.757 -4.115,8.635 1.174,-1.625 2.327,-3.264 3.459,-4.916 m -1.657,-110.872 c 0.277,0.235 0.436,0.508 0.501,0.791 1.87,0.765 3.74,1.529 5.61,2.294 -1.723,-1.56 -3.46,-3.104 -5.2,-4.644 -3.329,-1.895 -6.597,-3.89 -9.807,-5.972 2.965,2.511 5.931,5.021 8.896,7.531 m -21.414,20.752 c -12.367,-1.808 -24.883,-2.412 -37.353,-1.836 12.353,1.796 24.868,2.423 37.353,1.836 m 14.431,7.885 c 0.364,-0.009 0.664,0.089 0.901,0.257 1.904,-0.674 3.809,-1.347 5.713,-2.021 -22.314,-0.17 -44.617,0.877 -66.81,3.127 9.826,-0.449 19.663,-0.647 29.5,-0.575 10.232,-0.262 20.464,-0.525 30.696,-0.788 m -32.47,28.196 c 2.119,-0.701 4.223,-1.442 6.312,-2.222 1.663,-0.98 3.326,-1.961 4.989,-2.941 -0.298,0.094 -0.596,0.187 -0.894,0.281 -3.469,1.627 -6.938,3.255 -10.407,4.882 m 25.648,56.11 c 1.149,-2.054 2.313,-4.1 3.487,-6.14 -0.45,0.625 -0.904,1.247 -1.361,1.866 -0.71,1.424 -1.427,2.844 -2.126,4.274 m 4.92,-21.162 c -1.301,1.526 -2.608,3.048 -3.92,4.565 -1.721,3.108 -3.356,6.265 -4.907,9.466 2.943,-4.677 5.885,-9.354 8.827,-14.031 m -24.321,-23.8 c 7.15,-5.629 14.688,-10.767 22.55,-15.371 2.09,-1.494 4.17,-3.003 6.242,-4.524 1.66,-1.838 3.346,-3.652 5.062,-5.44 -0.647,0.203 -1.295,0.406 -1.942,0.609 -0.089,0.276 -0.27,0.535 -0.566,0.745 -8.343,5.931 -16.686,11.861 -25.028,17.791 -7.826,5.961 -15.814,11.705 -23.943,17.243 5.939,-3.582 11.81,-7.274 17.625,-11.053 m 0.111,10.225 c 1.361,-1.473 2.728,-2.942 4.1,-4.405 -4.32,3.446 -8.64,6.891 -12.96,10.337 3.008,-1.898 5.963,-3.875 8.86,-5.932 m 3.313,20.968 c 1.637,-1.156 3.258,-2.334 4.865,-3.529 0.598,-1.109 1.206,-2.211 1.826,-3.306 -2.231,2.278 -4.461,4.556 -6.691,6.835 m 1.817,-11.193 c -1.019,0.739 -2.047,1.466 -3.082,2.183 -1.009,1.73 -1.998,3.473 -2.964,5.229 2.015,-2.471 4.03,-4.941 6.046,-7.412 m -5.535,-49.389 c 0.295,-0.104 0.589,-0.209 0.884,-0.313 -1.919,0.214 -3.838,0.428 -5.756,0.642 -2.139,0.629 -4.267,1.3 -6.383,2.01 3.752,-0.78 7.503,-1.559 11.255,-2.339 m -11.541,11.488 c 0.426,-0.215 0.852,-0.431 1.278,-0.645 -0.469,0.085 -0.939,0.168 -1.409,0.251 -2.867,0.948 -5.734,1.896 -8.601,2.844 -0.709,0.308 -1.411,0.631 -2.116,0.948 0.754,-0.169 1.51,-0.333 2.261,-0.511 2.863,-0.962 5.725,-1.925 8.587,-2.887 m -5.084,13.37 c -1.546,1.273 -3.078,2.564 -4.593,3.877 2.747,-1.619 5.493,-3.238 8.24,-4.857 -1.212,0.34 -2.427,0.666 -3.647,0.98 m 13.375,-52.924 c -9.797,-0.893 -19.567,-2.055 -29.301,-3.466 21.865,4.416 43.958,7.646 66.181,9.665 -1.829,-0.857 -3.658,-1.714 -5.487,-2.571 -0.253,0.144 -0.561,0.212 -0.922,0.167 -10.157,-1.265 -20.314,-2.53 -30.471,-3.795 m -5.913,-12.145 c 2.036,0.915 4.088,1.791 6.155,2.627 1.888,0.401 3.776,0.802 5.665,1.203 -0.283,-0.132 -0.566,-0.265 -0.849,-0.398 -3.657,-1.144 -7.314,-2.288 -10.971,-3.432 m 16.245,-8.597 c 0.289,0.118 0.579,0.236 0.868,0.354 -1.575,-1.117 -3.149,-2.234 -4.724,-3.351 -2.015,-0.954 -4.049,-1.87 -6.101,-2.747 3.319,1.914 6.638,3.829 9.957,5.744 m 37.681,99.082 c 0.067,-0.305 0.134,-0.61 0.201,-0.915 -0.831,1.742 -1.661,3.485 -2.492,5.228 -0.594,2.149 -1.147,4.31 -1.66,6.482 1.317,-3.598 2.634,-7.197 3.951,-10.795 m 4.309,13.155 c -0.737,1.865 -1.48,3.729 -2.229,5.59 -0.621,3.498 -1.145,7.014 -1.574,10.545 1.268,-5.379 2.535,-10.757 3.803,-16.135 m -52.943,30.609 c 0.256,-0.242 0.503,-0.492 0.758,-0.735 0.128,-0.382 0.256,-0.764 0.386,-1.145 -0.38,0.628 -0.766,1.251 -1.144,1.88 M 7.854,88.665 C 7.295,87.99 6.737,87.315 6.178,86.64 c -0.052,0.027 -0.106,0.048 -0.161,0.069 0.612,0.652 1.225,1.304 1.837,1.956 M 61.51,17.828 c -7.638,-0.937 -15.253,-2.038 -22.841,-3.29 -0.18,0.748 -0.778,1.392 -1.672,1.286 -5.525,-0.649 -11.041,-1.373 -16.544,-2.17 -0.074,0.246 -0.199,0.481 -0.363,0.686 7.142,2.143 14.26,4.367 21.349,6.686 1.888,0.618 1.203,3.224 -0.617,3.268 -2.529,0.061 -5.057,0.067 -7.582,0.029 -0.391,0.304 -0.904,0.464 -1.493,0.327 -0.574,-0.133 -1.148,-0.267 -1.721,-0.4 -10.23,-0.32 -20.41,-1.443 -30.439,-3.337 -0.282,0.207 -0.646,0.316 -1.088,0.256 -0.009,-0.002 -0.018,-0.003 -0.026,-0.004 0.326,0.244 0.647,0.493 0.97,0.741 11.467,2.575 22.933,5.149 34.4,7.724 2.104,0.472 1.064,3.664 -1.032,3.193 -6.185,-1.388 -12.37,-2.777 -18.556,-4.166 4.357,1.489 8.831,2.656 13.403,3.459 2.096,0.368 1.977,3.725 -0.147,3.352 -5.78,-1.015 -11.412,-2.541 -16.851,-4.561 1.115,0.951 2.225,1.909 3.323,2.882 0.758,0.671 0.729,1.866 0.207,2.567 11.35,7.076 22.356,14.711 32.952,22.905 1.44,1.114 0.253,3.742 -1.54,2.947 -7.036,-3.117 -14.003,-6.384 -20.899,-9.787 -0.39,0.662 -1.149,1.105 -1.974,0.744 -4.494,-1.963 -8.962,-3.985 -13.408,-6.054 1.487,1.386 2.952,2.798 4.396,4.232 3.937,2.666 7.855,5.361 11.75,8.09 1.597,1.119 0.265,3.342 -1.442,2.966 1.07,1.383 -0.372,3.536 -2.065,2.571 -4.132,-2.357 -8.242,-4.747 -12.335,-7.169 -1.93,-0.699 -3.848,-1.427 -5.754,-2.186 3.783,3.146 7.544,6.32 11.252,9.557 0.678,0.591 0.602,1.466 0.169,2.102 6.024,4.782 11.953,9.685 17.778,14.715 1.484,1.282 -0.385,3.478 -2.007,2.652 -6.392,-3.256 -12.686,-6.693 -18.884,-10.29 6.106,6.544 11.937,13.351 17.469,20.405 1.326,1.691 -1.139,3.97 -2.474,2.267 C 19.033,86.641 10.252,76.8 0.891,67.555 -0.653,66.59 -2.192,65.616 -3.723,64.631 c -0.254,0.476 -0.76,0.862 -1.329,0.995 2.766,3.798 5.384,7.707 7.876,11.7 6.181,7.473 12.363,14.947 18.544,22.42 1.373,1.66 -1.094,3.935 -2.474,2.267 -2.285,-2.763 -4.571,-5.526 -6.856,-8.289 -0.004,1.301 -1.763,2.422 -2.921,1.189 C 2.184,87.528 -4.748,80.144 -11.68,72.76 c -0.329,-0.351 -0.454,-0.735 -0.447,-1.104 -0.019,-0.018 -0.039,-0.036 -0.059,-0.054 -0.236,0.134 -0.499,0.22 -0.77,0.246 3.61,4.418 7.162,8.885 10.65,13.402 0.55,0.713 0.305,1.556 -0.243,2.095 4.978,5.863 9.841,11.826 14.575,17.893 1.207,1.546 -1.054,3.337 -2.484,2.21 -10.525,-8.285 -20.606,-17.105 -30.229,-26.394 -0.283,0.346 -0.724,0.596 -1.198,0.683 0.288,0.638 0.055,1.222 -0.404,1.604 6.496,4.896 12.593,10.31 18.222,16.224 1.492,1.567 -0.984,3.832 -2.474,2.267 -6.743,-7.084 -14.153,-13.42 -22.143,-18.985 0.215,0.707 0.437,1.411 0.645,2.121 0.054,0.184 0.064,0.368 0.056,0.549 4.86,5.111 9.72,10.222 14.581,15.333 1.49,1.568 -0.985,3.833 -2.474,2.267 -3.868,-4.067 -7.735,-8.135 -11.603,-12.202 5.145,10.866 9.814,21.961 13.957,33.265 0.627,1.709 -1.777,3.302 -2.872,1.675 -4.298,-6.383 -8.458,-12.856 -12.485,-19.408 -0.683,0.354 -1.561,0.324 -2.067,-0.42 -3.212,-4.718 -6.356,-9.48 -9.436,-14.283 -0.108,0.249 -0.272,0.473 -0.472,0.655 3.044,6.761 6.012,13.557 8.89,20.392 0.771,1.831 -1.647,3.021 -2.873,1.676 -8.732,-9.587 -16.463,-20.015 -23.115,-31.077 0.337,4.283 0.561,8.577 0.671,12.877 2.683,3.731 5.781,7.186 9.254,10.284 1.612,1.439 -0.875,3.694 -2.474,2.267 -2.693,-2.402 -5.158,-5.014 -7.391,-7.794 -0.316,0.269 -0.704,0.448 -1.088,0.485 2.37,13.163 4.096,26.447 5.132,39.801 0.141,1.816 -2.605,2.699 -3.219,0.836 -2.41,-7.308 -4.663,-14.665 -6.768,-22.062 -0.753,0.156 -1.59,-0.11 -1.877,-0.963 -1.435,-4.277 -2.817,-8.569 -4.157,-12.875 -0.042,2.343 -0.128,4.686 -0.254,7.028 0.56,4.024 1.097,8.051 1.602,12.083 0.219,1.748 -1.839,2.329 -2.877,1.303 -0.629,1.317 -2.762,1.466 -3.148,-0.254 -0.888,-3.965 -1.745,-7.936 -2.579,-11.912 -0.91,-2.162 -1.783,-4.337 -2.615,-6.528 0.194,4.505 0.346,9.012 0.441,13.522 0.019,0.9 -0.678,1.433 -1.44,1.541 0.521,7.673 0.889,15.358 1.092,23.051 0.051,1.961 -2.831,2.058 -3.312,0.302 -3.542,-12.918 -6.41,-26.002 -8.63,-39.191 -0.847,0.215 -1.964,-0.213 -2.296,-1.169 -2.19,-6.306 -4.111,-12.697 -5.766,-19.15 -0.002,0.009 -0.004,0.017 -0.006,0.026 -0.412,1.579 -2.496,1.387 -3.102,0.172 -0.305,4.294 -0.61,8.589 -0.915,12.883 -0.105,1.475 -1.568,1.862 -2.526,1.297 -0.967,5.905 -1.933,11.811 -2.899,17.717 -0.343,2.093 -3.666,2.005 -3.352,-0.146 1.511,-10.365 3.023,-20.73 4.534,-31.095 -1.502,5.24 -3.217,10.425 -5.154,15.535 -0.488,1.287 -2.347,1.405 -3.033,0.483 -0.083,0.394 -0.166,0.788 -0.25,1.182 -0.263,1.247 -1.438,1.388 -2.294,0.878 -0.984,0.158 -2.024,-0.406 -1.808,-1.663 0.068,-0.397 0.136,-0.794 0.204,-1.191 -0.978,0.604 -2.662,-0.191 -2.641,-1.568 0.086,-5.464 0.405,-10.915 0.943,-16.34 -2.42,10.191 -4.841,20.382 -7.261,30.573 -0.503,2.115 -3.624,0.97 -3.17,-1.101 1.282,-5.846 2.563,-11.691 3.845,-17.537 -1.1,0.172 -2.316,-0.728 -1.87,-2.137 1.302,-4.104 2.604,-8.208 3.905,-12.312 -1.012,0.906 -3.02,0.315 -2.82,-1.304 0.001,-0.009 0.002,-0.017 0.003,-0.026 -0.301,0.415 -0.614,0.822 -0.918,1.235 0.221,0.353 0.285,0.806 0.069,1.33 -2.668,6.494 -5.337,12.988 -8.005,19.481 -0.815,1.983 -4.017,0.972 -3.194,-1.032 1.57,-3.819 3.139,-7.638 4.708,-11.457 -1.663,2.062 -3.352,4.105 -5.085,6.112 -0.662,0.767 -1.858,0.752 -2.565,0.239 -6.931,11.439 -14.426,22.542 -22.485,33.24 -1.096,1.455 -3.738,0.301 -2.967,-1.502 3.028,-7.075 6.206,-14.082 9.522,-21.022 -0.668,-0.381 -1.12,-1.134 -0.77,-1.964 1.993,-4.724 4.048,-9.42 6.157,-14.092 -0.394,0.219 -0.847,0.272 -1.267,0.194 -3.646,5.612 -7.352,11.185 -11.122,16.716 -1.12,1.641 -3.432,0.257 -2.967,-1.503 0.514,-1.947 1.063,-3.884 1.637,-5.812 -1.498,1.343 -3.013,2.668 -4.554,3.965 -1.392,1.173 -3.632,-0.326 -2.627,-2.039 1.206,-2.055 2.42,-4.104 3.642,-6.149 -0.118,-0.433 -0.082,-0.918 0.202,-1.385 2.628,-4.327 5.257,-8.654 7.885,-12.981 -3.888,4.61 -7.825,9.179 -11.847,13.676 -0.6,0.671 -1.474,0.585 -2.105,0.144 -4.855,5.965 -9.83,11.834 -14.93,17.597 -1.3,1.468 -3.474,-0.427 -2.627,-2.04 4.678,-8.913 9.699,-17.635 15.036,-26.154 -6.562,5.829 -13.123,11.659 -19.685,17.488 -1.615,1.435 -3.884,-1.036 -2.266,-2.474 l 26.824,-23.832 c -0.224,-0.261 -0.39,-0.586 -0.462,-0.931 -0.589,-0.055 -1.15,-0.379 -1.465,-0.827 -10.264,8.575 -20.953,16.649 -32.045,24.158 -1.507,1.021 -3.633,-0.927 -2.319,-2.383 5.157,-5.711 10.435,-11.31 15.821,-16.8 -0.508,-0.578 -0.692,-1.436 -0.092,-2.108 4.02,-4.498 8.122,-8.921 12.269,-13.298 -4.006,3.094 -8.013,6.189 -12.02,9.283 -0.432,0.335 -0.91,0.425 -1.354,0.356 -1.895,1.442 -3.797,2.877 -5.704,4.304 -1.591,1.191 -3.33,-0.868 -2.32,-2.383 2.247,-3.368 4.609,-6.652 7.057,-9.866 -3.709,1.604 -7.468,3.102 -11.278,4.475 -1.712,0.618 -3.294,-1.564 -1.757,-2.823 7.11,-5.823 14.308,-11.534 21.588,-17.137 -6.378,3.673 -12.821,7.235 -19.328,10.681 -0.796,0.421 -1.585,0.037 -2.024,-0.594 -6.622,3.911 -13.323,7.692 -20.105,11.329 -1.728,0.926 -3.11,-1.605 -1.757,-2.824 9.95,-8.966 20.353,-17.406 31.139,-25.314 -0.573,-0.66 -0.692,-1.849 0.013,-2.576 3.756,-3.869 7.647,-7.598 11.648,-11.198 -5.822,3.318 -11.644,6.637 -17.467,9.955 -1.881,1.072 -3.439,-1.901 -1.565,-2.969 6.672,-3.802 13.345,-7.605 20.018,-11.408 0.033,-0.293 0.132,-0.579 0.313,-0.821 -3.974,1.656 -7.948,3.313 -11.922,4.969 -1.249,0.521 -2.192,-0.384 -2.286,-1.392 -1.391,0.518 -2.781,1.036 -4.172,1.554 -0.528,0.197 -1.029,0.132 -1.443,-0.079 -3.841,1.204 -7.682,2.407 -11.523,3.611 -2.024,0.634 -3.439,-2.375 -1.375,-3.061 4.437,-1.476 8.875,-2.951 13.312,-4.427 -0.48,-0.767 -0.403,-1.985 0.507,-2.53 0.428,-0.257 0.861,-0.503 1.291,-0.756 -0.495,0.055 -0.99,0.119 -1.487,0.171 -1.053,0.109 -1.85,-0.818 -1.927,-1.719 -4.434,1.482 -8.868,2.964 -13.301,4.446 -2.063,0.69 -2.737,-2.566 -0.737,-3.273 3.794,-1.343 7.589,-2.685 11.384,-4.027 0.205,-0.417 0.566,-0.77 1.107,-0.93 1.426,-0.42 2.852,-0.841 4.278,-1.262 -0.531,-0.863 -0.327,-2.15 0.985,-2.484 4.173,-1.059 8.346,-2.119 12.519,-3.178 -1.303,-0.382 -1.861,-2.4 -0.38,-3.084 0.008,-0.004 0.016,-0.007 0.024,-0.011 -6.644,-0.487 -13.273,-1.247 -19.867,-2.288 -1,-0.158 -1.619,-1.181 -1.556,-2.053 -13.374,0.147 -26.76,-0.361 -40.1,-1.563 -1.814,-0.163 -2.228,-3.017 -0.289,-3.313 7.608,-1.16 15.237,-2.158 22.881,-3.002 -0.028,-0.769 0.373,-1.55 1.262,-1.69 7.273,-1.148 14.565,-2.166 21.871,-3.055 -9.186,-0.113 -18.371,-0.362 -27.552,-0.753 -1.985,-0.085 -2.03,-2.78 -0.289,-3.313 8.72,-2.675 17.604,-4.727 26.577,-6.159 -8.789,-2.305 -17.429,-5.219 -25.845,-8.736 -1.68,-0.702 -1.371,-3.379 0.612,-3.268 9.176,0.511 18.341,1.164 27.494,1.952 -7.184,-1.601 -14.34,-3.329 -21.466,-5.185 -0.871,-0.227 -1.194,-1.043 -1.09,-1.805 -7.525,-1.591 -15.019,-3.332 -22.476,-5.233 -1.901,-0.484 -1.209,-3.284 0.612,-3.269 13.394,0.113 26.765,0.92 40.06,2.378 0.023,-0.873 0.739,-1.831 1.75,-1.89 6.664,-0.389 13.336,-0.495 19.996,-0.328 -0.008,-0.005 -0.015,-0.009 -0.023,-0.013 -1.407,-0.827 -0.654,-2.78 0.68,-3.032 -4.048,-1.464 -8.097,-2.928 -12.146,-4.391 -0.557,-0.202 -0.878,-0.567 -1.021,-0.98 -1.475,-0.575 -2.951,-1.149 -4.426,-1.724 -1.242,-0.484 -1.417,-1.945 -0.863,-2.775 -3.502,-1.641 -7.004,-3.282 -10.505,-4.923 -1.921,-0.9 -0.931,-4.074 1.054,-3.186 4.38,1.961 8.76,3.922 13.141,5.882 0.321,-0.18 0.697,-0.263 1.1,-0.187 1.763,0.336 3.519,0.705 5.271,1.089 -1.47,-1.028 -2.931,-2.069 -4.373,-3.139 -0.326,-0.242 -0.509,-0.575 -0.595,-0.93 -4.414,-1.895 -8.828,-3.79 -13.242,-5.685 -1.998,-0.858 -0.334,-3.737 1.629,-2.934 3.579,1.464 7.159,2.928 10.738,4.391 0.235,-0.97 1.429,-1.831 2.627,-1.245 1.42,0.694 2.84,1.389 4.259,2.083 0.402,-0.175 0.892,-0.183 1.419,0.091 3.735,1.942 7.469,3.883 11.204,5.825 -9.253,-7.173 -19.288,-13.303 -29.931,-18.243 -1.931,-0.897 -0.928,-4.104 1.033,-3.194 10.752,4.991 20.861,11.1 30.224,18.261 -4.372,-4.553 -8.576,-9.273 -12.583,-14.167 -0.641,-0.783 -0.422,-1.958 0.205,-2.568 -10.081,-8.79 -19.734,-18.077 -28.892,-27.852 -1.245,-1.329 0.346,-3.734 1.989,-2.665 6.451,4.197 12.81,8.529 19.078,12.986 0.49,-0.593 1.309,-0.908 2.066,-0.422 5.417,3.484 10.773,7.057 16.077,10.706 -0.513,-0.644 -1.025,-1.289 -1.53,-1.94 -5.479,-5.064 -10.9,-10.19 -16.254,-15.389 -1.425,-1.384 0.336,-3.425 1.99,-2.665 0.85,0.39 1.695,0.791 2.539,1.193 -0.492,-0.794 -0.983,-1.591 -1.465,-2.393 -0.937,-1.561 0.898,-3.534 2.43,-2.27 5.756,4.749 11.448,9.574 17.083,14.463 0.714,0.438 1.423,0.883 2.131,1.329 -4.219,-4.879 -8.377,-9.813 -12.443,-14.824 -0.567,-0.699 -0.343,-1.548 0.192,-2.1 -5.118,-5.74 -10.124,-11.584 -15.004,-17.534 -1.244,-1.517 0.973,-3.362 2.43,-2.27 3.398,2.544 6.748,5.149 10.06,7.801 -0.317,-0.571 -0.639,-1.137 -0.945,-1.715 -1.013,-1.912 1.957,-3.474 2.968,-1.565 1.819,3.432 3.839,6.733 6.03,9.905 4.113,3.475 8.157,7.03 12.127,10.665 0.152,-0.123 0.32,-0.214 0.497,-0.273 -7.393,-8.527 -14.785,-17.055 -22.178,-25.582 -1.414,-1.632 1.056,-3.903 2.474,-2.267 8.036,9.269 16.072,18.539 24.108,27.809 0.264,0.047 0.521,0.15 0.749,0.34 3.126,2.608 6.164,5.312 9.115,8.103 0.603,0.444 1.201,0.894 1.8,1.343 -6.005,-7.768 -12.011,-15.536 -18.016,-23.305 -1.33,-1.72 1.522,-3.429 2.848,-1.773 3.742,4.67 7.484,9.34 11.225,14.01 0.346,-0.597 1.04,-0.968 1.713,-0.872 0.17,-0.658 0.782,-1.155 1.467,-1.242 -2.86,-5.257 -5.72,-10.513 -8.58,-15.77 -1.014,-1.863 1.665,-3.833 2.737,-1.941 4.842,8.542 9.684,17.084 14.526,25.626 -0.183,-0.726 -0.366,-1.452 -0.543,-2.179 -1.433,-3.801 -2.752,-7.649 -3.948,-11.539 -0.278,-0.907 0.297,-1.774 1.045,-2.126 -0.01,-0.054 -0.022,-0.107 -0.031,-0.161 -0.099,-0.546 0.09,-1.064 0.416,-1.464 -0.138,-0.665 0.204,-1.189 0.73,-1.47 -4.422,-12.327 -8.257,-24.869 -11.447,-37.59 -0.443,-1.766 2.116,-3.097 3.033,-1.364 3.601,6.802 7.054,13.677 10.369,20.617 0.716,-0.279 1.586,-0.158 2.011,0.636 3.479,6.489 6.84,13.04 10.085,19.646 -2.917,-8.712 -5.707,-17.467 -8.36,-26.265 -0.573,-1.902 1.957,-2.831 3.034,-1.363 4.123,5.618 7.932,11.449 11.422,17.455 0.688,-0.199 1.434,0.032 1.739,0.941 0.128,0.382 0.256,0.764 0.384,1.146 0.575,-0.995 2.435,-1.092 3.068,0.131 2.51,4.855 4.809,9.808 6.902,14.841 -2.69,-10.123 -5.381,-20.246 -8.071,-30.369 -0.559,-2.101 2.733,-2.57 3.313,-0.53 1.637,5.756 3.274,11.512 4.912,17.268 0.887,-0.672 2.385,-0.455 2.658,0.998 0.796,4.232 1.591,8.463 2.387,12.694 0.101,-0.28 0.281,-0.515 0.503,-0.702 -2.14,-11.415 -4.28,-22.829 -6.42,-34.244 -0.398,-2.12 2.873,-2.875 3.271,-0.75 2.052,10.944 4.103,21.887 6.155,32.831 0.844,-5.69 1.879,-11.355 3.133,-16.98 0.22,-0.988 1.28,-1.541 2.146,-1.425 0.693,-13.356 2.041,-26.684 4.078,-39.922 0.276,-1.8 3.151,-2.034 3.324,-0.081 0.681,7.666 1.197,15.343 1.56,23.025 0.769,0.02 1.523,0.47 1.607,1.366 0.69,7.331 1.247,14.672 1.675,22.019 0.691,-9.16 1.516,-18.312 2.483,-27.451 0.209,-1.975 2.901,-1.85 3.324,-0.08 1.624,6.787 2.874,13.647 3.761,20.545 0.846,-0.048 1.653,0.451 1.567,1.554 -0.031,0.401 -0.062,0.803 -0.094,1.205 0.918,-0.692 2.669,-0.054 2.774,1.319 0.415,5.449 0.597,10.906 0.56,16.357 1.475,-10.37 2.95,-20.74 4.425,-31.109 0.307,-2.153 3.52,-1.3 3.258,0.805 -0.74,5.939 -1.48,11.877 -2.22,17.815 1.079,-0.272 2.373,0.513 2.058,1.957 -0.92,4.206 -1.84,8.412 -2.759,12.618 0.925,-0.994 2.978,-0.591 2.928,1.04 -10e-4,0.009 -10e-4,0.018 -10e-4,0.027 3.408,-5.724 7.054,-11.312 10.936,-16.744 0.588,-0.824 1.78,-0.919 2.532,-0.473 5.852,-12.026 12.297,-23.769 19.341,-35.163 0.957,-1.548 3.695,-0.641 3.092,1.225 -2.366,7.323 -4.889,14.592 -7.554,21.806 0.7,0.319 1.219,1.027 0.947,1.885 -2.228,7.018 -4.581,13.994 -7.055,20.926 4.212,-8.164 8.545,-16.268 13.003,-24.303 0.964,-1.737 3.393,-0.571 3.092,1.224 -1.252,7.46 -2.944,14.828 -5.042,22.069 5.011,-5.633 10.346,-10.988 15.993,-16.021 1.359,-1.212 3.64,0.224 2.683,1.964 -4.427,8.054 -8.978,16.036 -13.644,23.95 4.548,-5.786 9.2,-11.493 13.953,-17.117 0.582,-0.687 1.457,-0.625 2.1,-0.202 4.686,-6.098 9.496,-12.104 14.433,-18.007 1.258,-1.504 3.484,0.33 2.683,1.965 -5.891,12.029 -12.398,23.738 -19.459,35.097 0.079,0.04 0.154,0.092 0.228,0.146 10.196,-9.734 20.391,-19.467 30.587,-29.201 1.565,-1.494 3.83,0.982 2.267,2.474 l -23.378,22.318 c 9.187,-7.877 18.373,-15.755 27.56,-23.632 1.638,-1.405 3.91,1.064 2.266,2.474 -14.076,12.07 -28.152,24.141 -42.228,36.211 -0.069,0.15 -0.134,0.302 -0.202,0.452 13.987,-10.283 27.975,-20.566 41.962,-30.848 1.724,-1.268 4.008,1.194 2.267,2.474 -11.035,8.112 -22.07,16.225 -33.106,24.337 -0.061,0.215 -0.179,0.432 -0.375,0.645 -0.272,0.297 -0.545,0.593 -0.818,0.89 1.149,0.023 2.133,1.605 1.368,2.75 -0.508,0.758 -1.028,1.507 -1.545,2.258 0.071,0.117 0.129,0.242 0.172,0.373 0.943,-0.771 1.886,-1.542 2.829,-2.314 -0.121,-0.503 0.003,-1.057 0.523,-1.505 9.975,-8.605 19.95,-17.211 29.925,-25.817 1.635,-1.41 3.907,1.06 2.267,2.474 -6.298,5.433 -12.596,10.867 -18.895,16.301 0.452,0.663 0.538,1.635 -0.181,2.348 -3.534,3.506 -7.067,7.011 -10.601,10.516 13.125,-10.764 26.251,-21.527 39.376,-32.291 1.665,-1.366 3.941,1.101 2.267,2.474 -12.875,10.558 -25.75,21.116 -38.624,31.674 0.071,0.13 0.124,0.267 0.157,0.407 11.871,-7.63 24.276,-14.418 37.142,-20.286 1.96,-0.895 3.533,2.071 1.565,2.968 -7.925,3.615 -15.675,7.581 -23.235,11.874 l 14.325,-7.387 c 1.922,-0.992 3.487,1.978 1.566,2.968 -12.376,6.383 -24.753,12.765 -37.129,19.148 -1.174,0.927 -2.348,1.855 -3.521,2.783 4.941,-1.808 9.942,-3.464 15,-4.945 0.009,-0.003 0.019,-0.002 0.028,-0.005 9.896,-6.062 19.792,-12.125 29.688,-18.187 1.846,-1.132 3.399,1.845 1.566,2.968 -6.268,3.839 -12.535,7.679 -18.803,11.519 4,-2.228 8.001,-4.455 12.001,-6.683 0.951,-0.53 1.817,-0.041 2.205,0.709 4.146,-1.684 8.319,-3.305 12.523,-4.848 1.71,-0.627 3.303,1.777 1.677,2.872 -6.383,4.3 -12.855,8.461 -19.406,12.49 0.354,0.683 0.325,1.561 -0.419,2.067 -6.085,4.146 -12.244,8.181 -18.47,12.105 8.355,-3.821 16.766,-7.52 25.234,-11.089 1.831,-0.771 3.022,1.646 1.676,2.872 -6.039,5.504 -12.413,10.609 -19.067,15.3 4.301,-0.786 8.632,-1.426 12.983,-1.926 2.5,-1.449 5.001,-2.898 7.501,-4.347 1.874,-1.086 3.431,1.888 1.566,2.969 -0.36,0.208 -0.719,0.416 -1.078,0.624 1.1,-0.08 2.201,-0.153 3.303,-0.215 1.817,-0.101 2.708,2.442 0.876,3.209 -8.478,3.545 -17.01,6.957 -25.589,10.244 7.162,-1.695 14.355,-3.265 21.576,-4.705 0.883,-0.176 1.53,0.418 1.769,1.149 7.465,-1.854 14.967,-3.559 22.507,-5.104 1.921,-0.393 2.52,2.428 0.875,3.209 -12.1,5.744 -24.482,10.855 -37.08,15.346 0.36,0.796 0.134,1.97 -0.749,2.465 -3.76,2.103 -7.579,4.089 -11.441,5.983 4.484,-0.37 8.968,-0.74 13.453,-1.111 2.146,-0.177 1.98,3.177 -0.147,3.353 -6.167,0.509 -12.334,1.018 -18.501,1.527 0.385,0.685 0.242,1.68 -0.389,2.223 1.003,-0.084 2.006,-0.167 3.01,-0.251 3.25,-0.342 6.5,-0.683 9.75,-1.025 0.36,-0.038 0.668,0.018 0.925,0.135 1.706,-0.142 3.413,-0.284 5.12,-0.426 1.495,-0.125 2.316,1.452 1.896,2.468 3.909,-0.053 7.819,-0.106 11.728,-0.159 2.121,-0.028 2.616,3.26 0.442,3.327 -4.919,0.151 -9.839,0.303 -14.758,0.455 -0.162,0.127 -0.34,0.236 -0.557,0.295 -2.004,0.547 -4.018,1.051 -6.036,1.533 2.05,0.319 4.098,0.66 6.139,1.046 0.221,0.041 0.408,0.136 0.579,0.249 4.916,-0.241 9.831,-0.483 14.747,-0.724 2.172,-0.107 1.942,3.21 -0.174,3.351 l -11.704,0.778 c 0.499,0.979 -0.193,2.617 -1.693,2.612 -1.713,-0.006 -3.425,-0.011 -5.138,-0.017 -0.247,0.138 -0.549,0.218 -0.911,0.209 -3.267,-0.081 -6.534,-0.162 -9.802,-0.243 -1.006,-0.004 -2.012,-0.007 -3.019,-0.01 1.056,0.772 1.008,2.752 -0.558,3.004 -0.009,10e-4 -0.017,0.002 -0.026,0.004 6.265,2.264 12.443,4.786 18.51,7.57 0.921,0.422 1.24,1.574 0.944,2.397 12.917,3.47 25.667,7.576 38.188,12.336 1.701,0.648 1.329,3.507 -0.618,3.268" />
          </g>
        </g>
      </g>
    </g>
  </g>
</svg>
